<?xml version="1.0" standalone="no"?>
<!DOCTYPE svg PUBLIC "-//W3C//DTD SVG 20010904//EN"
 "http://www.w3.org/TR/2001/REC-SVG-20010904/DTD/svg10.dtd">
<svg version="1.0" xmlns="http://www.w3.org/2000/svg"
 width="2976.000000pt" height="2976.000000pt" viewBox="0 0 2976.000000 2976.000000"
 preserveAspectRatio="xMidYMid meet">
<metadata>
Created by potrace 1.11, written by Peter Selinger 2001-2013
</metadata>
<g transform="translate(0.000000,2976.000000) scale(0.100000,-0.100000)"
fill="#000000" stroke="none">
<path d="M13923 26596 c-89 -29 -176 -107 -216 -194 -31 -67 -31 -207 0 -274
30 -66 105 -143 172 -175 49 -24 68 -28 146 -28 78 0 97 4 146 28 67 32 142
109 172 175 17 37 22 66 22 137 0 108 -20 159 -91 235 -65 70 -136 103 -233
107 -46 2 -93 -3 -118 -11z"/>
<path d="M11691 25215 c-180 -40 -305 -107 -432 -234 -236 -236 -307 -551
-199 -876 71 -214 291 -434 505 -505 250 -83 492 -61 710 67 156 91 311 277
365 438 83 250 61 492 -67 710 -91 156 -277 311 -438 365 -151 50 -313 63
-444 35z"/>
<path d="M10825 22189 c-220 -10 -417 -26 -530 -44 -49 -8 -139 -21 -200 -30
-457 -67 -971 -207 -1456 -398 -219 -86 -583 -253 -727 -334 -376 -210 -472
-272 -885 -566 -55 -39 -210 -165 -345 -282 -563 -483 -1079 -1102 -1426
-1713 -183 -321 -366 -720 -502 -1094 -81 -225 -217 -718 -249 -908 -66 -390
-93 -626 -111 -945 -17 -316 -17 -324 4 -685 19 -318 27 -402 67 -650 58 -366
61 -383 151 -710 121 -440 249 -773 464 -1205 219 -442 413 -746 724 -1139
259 -326 556 -635 871 -906 132 -113 265 -224 295 -246 150 -111 475 -336 550
-381 493 -296 894 -487 1380 -657 275 -97 561 -176 945 -261 56 -12 507 -77
622 -90 72 -8 270 -19 440 -26 419 -16 842 4 1198 56 353 52 393 59 710 136
623 150 1235 395 1805 723 542 313 917 597 1359 1031 408 401 656 706 976
1202 l150 233 52 0 c40 0 55 -4 66 -20 40 -57 348 -377 476 -495 196 -180 341
-295 578 -457 689 -471 1458 -774 2268 -893 274 -40 402 -52 675 -61 1124 -36
2289 300 3215 927 581 393 1064 878 1440 1444 72 110 150 232 172 270 102 178
247 475 308 630 109 278 123 318 195 583 91 332 152 714 171 1067 27 533 -31
1077 -172 1590 -71 262 -85 303 -194 580 -61 155 -206 452 -308 630 -22 39
-100 160 -172 270 -547 824 -1339 1489 -2258 1894 -530 234 -960 356 -1523
431 -593 79 -1197 60 -1799 -56 -860 -166 -1743 -588 -2425 -1157 -154 -129
-465 -434 -590 -580 l-75 -87 -50 0 -50 0 -150 233 c-320 496 -568 801 -976
1202 -259 254 -450 418 -729 625 -416 307 -965 611 -1510 835 -250 103 -604
216 -910 290 -686 167 -1301 227 -2005 194z m590 -1484 c592 -35 1074 -155
1689 -420 123 -52 471 -254 656 -380 272 -184 428 -313 671 -555 363 -362 621
-704 891 -1180 55 -97 179 -352 233 -480 51 -122 130 -348 216 -615 64 -203
160 -358 318 -516 256 -256 552 -379 910 -379 275 0 503 70 730 223 147 99
309 275 395 430 19 34 69 140 110 235 194 449 459 858 756 1166 505 525 1143
865 1840 980 822 136 1667 -57 2360 -538 188 -131 297 -221 450 -375 427 -429
753 -974 923 -1546 63 -210 123 -477 142 -630 9 -71 18 -137 21 -146 2 -9 9
-105 14 -215 35 -745 -136 -1511 -476 -2120 -281 -506 -655 -928 -1079 -1216
-601 -410 -1307 -609 -2015 -568 -206 11 -209 12 -405 47 -188 33 -434 106
-635 188 -580 235 -1113 666 -1482 1199 -123 177 -200 309 -326 559 -70 139
-143 275 -161 302 -164 241 -410 432 -681 529 -596 215 -1262 -6 -1616 -535
-81 -121 -120 -207 -194 -423 -306 -894 -893 -1729 -1635 -2325 -699 -561
-1670 -939 -2545 -991 -96 -5 -206 -13 -245 -16 -86 -7 -572 21 -710 42 -417
60 -740 146 -1110 293 -700 279 -1370 763 -1856 1342 -551 654 -938 1430
-1123 2249 -189 834 -189 1636 0 2470 192 851 603 1657 1183 2320 423 484
1042 943 1600 1187 603 264 1048 371 1716 412 196 12 191 12 470 -4z"/>
<path d="M9520 18529 c-196 -25 -375 -80 -555 -170 -164 -81 -288 -172 -430
-314 -142 -142 -233 -266 -314 -430 -242 -485 -242 -1025 0 -1510 81 -164 172
-288 314 -430 142 -142 266 -233 430 -314 350 -175 718 -223 1105 -145 197 40
448 150 620 272 122 86 316 280 402 402 122 172 232 423 272 620 78 387 30
755 -145 1105 -81 164 -172 288 -314 430 -142 142 -266 233 -430 314 -250 125
-497 183 -770 180 -66 -1 -149 -5 -185 -10z"/>
<path d="M16526 8535 c-499 -94 -885 -486 -972 -985 -22 -127 -15 -359 15
-477 112 -448 447 -781 899 -896 74 -18 114 -22 272 -22 158 0 198 4 272 22
455 115 786 446 901 901 18 74 22 114 22 272 0 158 -4 198 -22 272 -115 452
-447 786 -896 899 -110 28 -376 35 -491 14z"/>
<path d="M13923 4246 c-89 -29 -176 -107 -216 -194 -31 -67 -31 -207 0 -274
30 -66 105 -143 172 -175 49 -24 68 -28 146 -28 78 0 97 4 146 28 67 32 142
109 172 175 17 37 22 66 22 137 0 108 -20 159 -91 235 -65 70 -136 103 -233
107 -46 2 -93 -3 -118 -11z"/>
</g>
</svg>
